<?xml version="1.0" standalone="no"?>
<!DOCTYPE svg PUBLIC "-//W3C//DTD SVG 20010904//EN"
 "http://www.w3.org/TR/2001/REC-SVG-20010904/DTD/svg10.dtd">
<svg version="1.0" xmlns="http://www.w3.org/2000/svg"
 width="900.000000pt" height="413.000000pt" viewBox="0 0 900.000000 413.000000"
 preserveAspectRatio="xMidYMid meet">

<g transform="translate(0.000000,413.000000) scale(0.100000,-0.100000)"
fill="#000000" stroke="none">
<path d="M150 3855 l0 -115 80 0 c97 0 107 18 13 22 l-68 3 0 40 0 40 63 3
c83 4 80 22 -4 22 l-65 0 3 38 3 37 68 3 c94 4 84 22 -13 22 l-80 0 0 -115z"/>
<path d="M460 3928 c0 -33 -3 -39 -12 -30 -34 34 -98 -14 -98 -73 0 -25 8 -44
25 -60 26 -27 46 -31 76 -15 13 7 19 7 19 0 0 -5 5 -10 10 -10 6 0 10 45 10
115 0 96 -3 115 -15 115 -11 0 -15 -11 -15 -42z m-10 -58 c24 -24 26 -57 4
-88 -19 -27 -38 -28 -64 -2 -24 24 -26 57 -4 88 19 27 38 28 64 2z"/>
<path d="M540 3955 c0 -8 5 -15 10 -15 6 0 10 7 10 15 0 8 -4 15 -10 15 -5 0
-10 -7 -10 -15z"/>
<path d="M2126 3935 c-6 -29 -11 -35 -31 -35 -14 0 -25 -4 -25 -10 0 -5 9 -10
20 -10 14 0 20 -7 20 -21 0 -12 -8 -23 -20 -26 -23 -6 -27 -23 -6 -23 11 0 13
-9 9 -37 -4 -26 -2 -35 5 -28 6 6 12 21 14 35 2 19 10 26 31 28 27 3 28 2 21
-32 -4 -24 -2 -36 5 -36 6 0 11 9 11 19 0 35 12 51 36 51 13 0 24 5 24 10 0 6
-11 10 -24 10 -20 0 -23 4 -19 21 4 12 14 24 25 26 21 6 24 23 4 23 -11 0 -13
9 -9 35 4 23 2 35 -6 35 -6 0 -11 -9 -11 -19 0 -35 -12 -51 -37 -51 -23 0 -25
3 -19 35 4 20 3 35 -2 35 -6 0 -13 -16 -16 -35z m54 -80 c0 -21 -5 -25 -31
-25 -24 0 -30 3 -25 16 3 9 6 20 6 25 0 5 11 9 25 9 20 0 25 -5 25 -25z"/>
<path d="M2270 3855 l0 -115 55 0 c93 0 130 32 130 115 0 83 -37 115 -130 115
l-55 0 0 -115z m142 65 c24 -29 24 -101 0 -130 -12 -15 -33 -24 -65 -27 l-47
-6 0 98 0 98 47 -6 c32 -3 53 -12 65 -27z"/>
<path d="M2551 3957 c-70 -41 -67 -173 4 -205 14 -7 35 -12 46 -12 28 0 75 26
83 46 12 30 -4 32 -33 3 -36 -35 -61 -37 -98 -5 -23 20 -28 32 -28 71 0 39 5
51 28 71 36 31 62 30 94 -2 31 -31 53 -18 26 15 -23 28 -88 37 -122 18z"/>
<path d="M2765 3868 c-21 -57 -40 -109 -43 -115 -2 -7 2 -13 10 -13 9 0 19 15
24 33 9 30 13 32 61 35 51 3 52 3 64 -33 7 -19 19 -35 26 -35 18 0 18 4 -31
120 -24 58 -49 106 -58 108 -10 2 -26 -28 -53 -100z m78 10 l16 -48 -41 0
c-30 0 -39 3 -35 14 3 8 11 33 18 55 14 48 20 45 42 -21z"/>
<path d="M2983 3955 c-50 -35 -53 -158 -6 -195 34 -27 59 -25 88 5 32 31 33
74 2 103 -26 24 -48 27 -78 12 -16 -9 -19 -7 -19 10 0 23 33 60 55 60 8 0 20
-9 27 -20 15 -23 28 -26 28 -7 0 20 -33 47 -56 47 -11 0 -29 -7 -41 -15z m72
-109 c34 -51 -29 -113 -67 -66 -22 28 -23 48 -1 72 22 25 49 23 68 -6z"/>
<path d="M3150 3950 c-21 -21 -27 -50 -11 -50 5 0 12 9 16 19 7 23 31 34 57
25 28 -9 21 -58 -9 -62 -31 -5 -29 -15 7 -29 24 -9 30 -17 30 -42 0 -51 -70
-68 -85 -20 -8 25 -25 25 -25 0 0 -24 36 -51 68 -51 29 0 72 42 72 71 0 12 -7
30 -16 40 -12 13 -13 22 -5 38 6 11 11 24 11 30 0 20 -40 51 -65 51 -14 0 -34
-9 -45 -20z"/>
<path d="M3343 3960 c-21 -9 -40 -46 -29 -57 3 -3 15 6 27 20 22 29 48 34 67
15 26 -26 12 -58 -48 -116 -33 -32 -60 -64 -60 -70 0 -8 24 -12 75 -12 43 0
75 4 75 10 0 6 -25 10 -55 10 -30 0 -55 3 -55 7 0 3 25 29 55 58 57 53 68 83
43 118 -16 21 -65 30 -95 17z"/>
<path d="M3505 3928 c-3 -24 -9 -51 -11 -60 -6 -22 12 -23 32 -3 9 8 22 15 30
15 21 0 54 -37 54 -60 0 -24 -33 -60 -55 -60 -8 0 -23 9 -32 20 -20 24 -33 26
-33 6 0 -19 39 -46 66 -46 12 0 33 9 48 21 20 16 26 29 26 60 0 62 -43 94 -91
69 -22 -12 -24 -4 -9 34 8 22 16 26 50 26 22 0 40 5 40 10 0 6 -24 10 -54 10
l-54 0 -7 -42z"/>
<path d="M3680 3855 l0 -115 58 0 c73 0 102 18 102 65 0 22 -6 38 -17 44 -15
8 -16 12 -5 22 6 7 12 25 12 40 0 39 -33 59 -97 59 l-53 0 0 -115z m97 89 c12
-3 25 -15 28 -26 10 -30 -13 -48 -61 -48 -43 0 -44 1 -44 33 0 19 3 37 7 40 8
9 41 9 70 1z m21 -110 c12 -8 22 -22 22 -29 0 -23 -45 -47 -82 -43 -28 3 -33
7 -36 31 -2 16 -1 35 2 43 7 19 66 18 94 -2z"/>
<path d="M3912 3954 c-25 -17 -29 -56 -8 -73 13 -11 12 -15 -5 -32 -10 -10
-19 -28 -19 -39 0 -29 44 -70 75 -70 31 0 75 41 75 70 0 11 -8 28 -18 38 -16
16 -17 22 -5 37 18 26 16 42 -7 65 -24 24 -57 26 -88 4z m71 -25 c15 -24 1
-49 -27 -49 -34 0 -52 33 -30 55 19 19 43 16 57 -6z m-2 -79 c29 -16 26 -67
-5 -81 -34 -16 -66 3 -66 41 0 41 33 60 71 40z"/>
<path d="M4085 3945 c-14 -13 -25 -36 -25 -50 0 -29 40 -75 65 -75 9 0 25 5
36 10 16 9 19 7 19 -10 0 -23 -33 -60 -54 -60 -8 0 -22 10 -30 22 -18 25 -36
16 -20 -10 19 -29 59 -38 88 -19 53 35 58 158 9 197 -34 27 -59 25 -88 -5z
m77 -12 c22 -20 23 -56 2 -77 -19 -19 -35 -20 -58 -3 -35 25 -14 97 28 97 5 0
18 -7 28 -17z"/>
<path d="M4250 3855 l0 -115 85 0 c50 0 85 4 85 10 0 6 -30 10 -70 10 l-70 0
0 45 0 45 60 0 c33 0 60 4 60 10 0 6 -27 10 -60 10 l-60 0 0 40 0 40 65 0 c37
0 65 4 65 10 0 6 -33 10 -80 10 l-80 0 0 -115z"/>
<path d="M4520 3957 c-63 -31 -76 -126 -25 -184 19 -23 31 -28 70 -28 39 0 51
5 72 29 19 22 22 31 11 37 -8 5 -16 2 -22 -9 -24 -47 -74 -55 -111 -17 -19 18
-25 35 -25 70 0 83 74 124 125 70 16 -19 25 -23 31 -14 10 18 -42 59 -74 59
-15 0 -38 -6 -52 -13z"/>
<path d="M4700 3855 c0 -96 3 -115 15 -115 12 0 15 13 15 55 l0 55 55 0 c30 0
55 5 55 10 0 6 -25 10 -55 10 l-55 0 0 40 0 40 60 0 c33 0 60 4 60 10 0 6 -32
10 -75 10 l-75 0 0 -115z"/>
<path d="M4900 3855 c0 -96 3 -115 15 -115 12 0 15 13 15 55 l0 55 50 0 c28 0
50 5 50 10 0 6 -22 10 -50 10 l-50 0 0 40 0 40 60 0 c33 0 60 4 60 10 0 6 -32
10 -75 10 l-75 0 0 -115z"/>
<path d="M5100 3855 c0 -66 4 -115 9 -115 6 0 11 24 13 53 l3 52 53 3 c70 4
67 22 -4 22 l-55 0 3 38 3 37 63 3 c88 4 78 22 -13 22 l-75 0 0 -115z"/>
<path d="M5300 3855 c0 -66 4 -115 9 -115 6 0 11 24 13 53 l3 52 53 3 c70 4
67 22 -4 22 l-55 0 3 38 3 37 63 3 c88 4 78 22 -13 22 l-75 0 0 -115z"/>
<path d="M620 3936 c0 -13 -6 -27 -12 -29 -10 -4 -10 -7 -1 -14 7 -5 13 -39
15 -78 3 -64 5 -70 26 -73 25 -4 30 13 7 22 -11 4 -15 21 -15 66 0 47 3 60 15
60 8 0 15 5 15 10 0 6 -7 10 -15 10 -9 0 -15 9 -15 25 0 14 -4 25 -10 25 -5 0
-10 -11 -10 -24z"/>
<path d="M1160 3936 c0 -13 -6 -27 -12 -29 -10 -4 -10 -7 -1 -14 7 -5 13 -39
15 -78 3 -64 5 -70 26 -73 25 -4 30 13 7 22 -11 4 -15 21 -15 66 0 47 3 60 15
60 8 0 15 5 15 10 0 6 -7 10 -15 10 -9 0 -15 9 -15 25 0 14 -4 25 -10 25 -5 0
-10 -11 -10 -24z"/>
<path d="M540 3825 c0 -50 4 -85 10 -85 6 0 10 35 10 85 0 50 -4 85 -10 85 -6
0 -10 -35 -10 -85z"/>
<path d="M813 3895 c-69 -49 -13 -181 62 -147 22 10 25 9 25 -8 0 -11 -9 -24
-21 -30 -23 -13 -69 -6 -69 10 0 6 -4 10 -10 10 -18 0 -11 -29 9 -40 28 -14
63 -12 89 6 20 14 22 23 22 115 0 59 -4 99 -10 99 -5 0 -10 -5 -10 -10 0 -7
-6 -7 -19 0 -27 14 -43 13 -68 -5z m69 -22 c24 -22 23 -75 -2 -98 -17 -15 -24
-16 -45 -7 -21 10 -25 18 -25 56 0 32 5 48 18 55 24 14 33 13 54 -6z"/>
<path d="M992 3894 c-12 -8 -22 -22 -22 -30 0 -20 13 -18 33 6 20 24 50 26 67
5 16 -19 4 -35 -25 -35 -65 0 -103 -44 -69 -81 19 -22 45 -24 77 -8 16 9 22 9
25 0 2 -6 9 -11 15 -11 19 0 10 142 -11 158 -22 17 -63 15 -90 -4z m88 -89 c0
-21 -45 -48 -70 -40 -22 7 -27 40 -7 48 28 12 77 7 77 -8z"/>
<path d="M1272 3903 c-39 -15 -52 -114 -18 -142 25 -21 74 -24 101 -7 28 18
33 36 10 36 -8 0 -15 -4 -15 -10 0 -20 -50 -23 -70 -5 -36 33 -25 45 40 45 54
0 60 2 60 20 0 45 -63 81 -108 63z m66 -25 c25 -25 13 -38 -33 -38 -48 0 -55
9 -29 34 18 19 45 21 62 4z"/>
<path d="M1426 3833 c13 -43 24 -81 24 -85 0 -5 6 -8 14 -8 8 0 20 26 31 67
l18 67 17 -62 c27 -98 36 -96 69 12 23 76 25 86 12 86 -5 0 -17 -30 -27 -66
-19 -71 -24 -69 -44 14 -7 30 -18 52 -25 52 -7 0 -18 -22 -25 -52 -20 -85 -26
-86 -45 -14 -10 37 -23 66 -31 66 -9 0 -6 -21 12 -77z"/>
<path d="M1683 3898 c-13 -6 -23 -19 -23 -30 0 -24 8 -23 29 4 14 16 24 19 45
14 40 -10 30 -39 -16 -47 -47 -7 -68 -25 -68 -55 0 -35 41 -52 83 -36 21 8 33
9 35 2 2 -5 8 -10 13 -10 5 0 9 31 9 69 0 61 -3 72 -22 85 -26 18 -53 19 -85
4z m61 -125 c-24 -17 -49 -16 -64 2 -17 20 -3 35 42 44 28 6 34 4 36 -13 2
-11 -4 -26 -14 -33z"/>
<path d="M1847 3843 c35 -89 35 -123 3 -140 -21 -10 -22 -13 -7 -19 33 -12 40
1 118 204 6 16 5 22 -5 22 -7 0 -19 -19 -25 -42 -7 -24 -19 -54 -26 -67 -12
-23 -13 -21 -34 42 -13 39 -28 67 -36 67 -11 0 -8 -16 12 -67z"/>
<path d="M292 3378 c-7 -7 -12 -16 -12 -22 0 -5 6 -2 14 9 8 12 20 16 35 12
11 -3 19 -1 15 4 -8 13 -38 11 -52 -3z"/>
<path d="M1046 3381 c-4 -5 3 -7 14 -4 23 6 26 13 6 13 -8 0 -17 -4 -20 -9z"/>
<path d="M385 3350 c-3 -6 1 -7 9 -4 18 7 21 14 7 14 -6 0 -13 -4 -16 -10z"/>
<path d="M456 3351 c-4 -5 3 -7 14 -4 23 6 26 13 6 13 -8 0 -17 -4 -20 -9z"/>
<path d="M525 3350 c-3 -6 1 -7 9 -4 18 7 21 14 7 14 -6 0 -13 -4 -16 -10z"/>
<path d="M636 3351 c-4 -5 3 -7 14 -4 23 6 26 13 6 13 -8 0 -17 -4 -20 -9z"/>
<path d="M1040 3356 c0 -3 14 -12 30 -21 17 -9 30 -13 30 -11 0 3 -13 12 -30
21 -16 9 -30 13 -30 11z"/>
<path d="M1173 3354 c23 -7 22 -20 -4 -27 -22 -6 -22 -29 -1 -33 7 -1 8 0 2 3
-5 2 -10 9 -10 14 0 14 28 11 34 -3 3 -7 4 0 3 17 -1 22 -7 30 -22 32 -16 1
-16 1 -2 -3z"/>
<path d="M1330 3356 c0 -2 9 -6 20 -9 11 -3 18 -1 14 4 -5 9 -34 13 -34 5z"/>
<path d="M333 3333 c10 -3 16 -10 14 -16 -6 -20 -40 -20 -54 -1 -7 10 -13 13
-13 7 0 -20 29 -35 55 -29 33 8 35 47 3 45 -18 -1 -19 -2 -5 -6z"/>
<path d="M395 3330 l-30 -8 33 -1 c17 0 32 4 32 9 0 6 -1 9 -2 9 -2 -1 -16 -5
-33 -9z"/>
<path d="M535 3330 l-30 -8 33 -1 c17 0 32 4 32 9 0 6 -1 9 -2 9 -2 -1 -16 -5
-33 -9z"/>
<path d="M638 3323 c6 -2 18 -2 25 0 6 3 1 5 -13 5 -14 0 -19 -2 -12 -5z"/>
<path d="M387 3298 c2 -5 10 -8 18 -8 8 0 16 3 18 8 3 4 -5 7 -18 7 -13 0 -21
-3 -18 -7z"/>
<path d="M527 3298 c2 -5 10 -8 18 -8 8 0 16 3 18 8 3 4 -5 7 -18 7 -13 0 -21
-3 -18 -7z"/>
<path d="M630 3298 c0 -4 11 -7 25 -6 28 3 24 11 -5 13 -11 1 -20 -2 -20 -7z"/>
<path d="M1048 3298 c5 -5 16 -8 23 -6 8 3 3 7 -10 11 -17 4 -21 3 -13 -5z"/>
<path d="M1267 3299 c7 -7 15 -10 18 -7 3 3 -2 9 -12 12 -14 6 -15 5 -6 -5z"/>
<path d="M1338 3293 c7 -3 16 -2 19 1 4 3 -2 6 -13 5 -11 0 -14 -3 -6 -6z"/>
<path d="M1281 2818 c1 -29 4 -41 6 -25 5 31 23 37 23 8 0 -32 19 -34 26 -4
11 47 19 50 25 8 6 -39 6 -39 8 13 1 40 -2 52 -14 52 -8 0 -15 -8 -15 -17 0
-10 -5 -25 -10 -33 -7 -12 -11 -8 -16 18 -11 54 -34 40 -33 -20z"/>
<path d="M1396 2823 c-20 -58 -20 -56 4 -41 16 10 24 10 40 0 11 -7 20 -11 20
-9 0 15 -34 97 -40 97 -4 0 -15 -21 -24 -47z m37 -3 c4 -15 0 -20 -13 -20 -13
0 -17 5 -13 20 3 11 9 20 13 20 4 0 10 -9 13 -20z"/>
<path d="M1492 2858 c-7 -7 -12 -24 -12 -38 0 -14 5 -31 12 -38 14 -14 44 -16
52 -4 2 4 -8 8 -22 7 -24 0 -27 4 -27 35 0 31 3 35 27 35 14 -1 24 3 22 7 -8
12 -38 10 -52 -4z"/>
<path d="M1609 2868 c-5 -18 -6 -38 -1 -34 7 8 12 36 6 36 -2 0 -4 -1 -5 -2z"/>
<path d="M2080 2810 c0 -46 2 -50 23 -50 30 0 47 18 47 50 0 32 -17 50 -47 50
-21 0 -23 -4 -23 -50z m55 0 c0 -29 -4 -36 -22 -38 -21 -3 -23 1 -23 38 0 37
2 41 23 38 18 -2 22 -9 22 -38z"/>
<path d="M2182 2848 c-7 -7 -12 -16 -12 -22 0 -5 6 -1 14 10 13 17 17 18 38 5
21 -13 22 -13 9 2 -16 20 -32 22 -49 5z"/>
<path d="M2352 2848 c-7 -7 -11 -26 -11 -42 2 -31 2 -31 8 4 4 25 11 35 23 34
10 -1 15 2 12 7 -7 12 -18 11 -32 -3z"/>
<path d="M2416 2851 c-3 -5 3 -7 14 -4 22 6 30 -22 8 -29 -8 -3 -7 -6 4 -10
11 -5 15 0 14 20 -1 27 -28 43 -40 23z"/>
<path d="M2486 2851 c-3 -5 3 -7 14 -4 27 7 27 -27 0 -52 -27 -25 -25 -35 8
-34 24 2 25 2 4 6 l-24 5 22 23 c12 13 20 31 18 41 -4 21 -33 31 -42 15z"/>
<path d="M2568 2853 c6 -2 18 -2 25 0 6 3 1 5 -13 5 -14 0 -19 -2 -12 -5z"/>
<path d="M2620 2810 l0 -50 33 1 c30 2 30 2 5 6 -33 5 -41 43 -9 43 11 0 22 4
25 9 3 4 -6 6 -19 3 -19 -3 -25 0 -25 13 0 13 6 16 25 13 13 -3 22 -1 19 3 -3
5 -16 9 -30 9 -22 0 -24 -4 -24 -50z"/>
<path d="M2716 2848 c-9 -27 -3 -46 13 -40 10 4 11 7 3 10 -18 6 -14 30 6 35
16 4 16 5 -1 6 -10 0 -19 -5 -21 -11z"/>
<path d="M2785 2850 c-3 -6 1 -7 9 -4 18 7 21 14 7 14 -6 0 -13 -4 -16 -10z"/>
<path d="M2850 2810 l0 -50 33 1 c30 2 30 2 5 6 -19 3 -28 10 -28 23 0 13 9
20 28 23 l27 4 -27 2 c-17 0 -28 7 -28 15 0 8 12 17 28 19 25 4 25 4 -5 6
l-33 1 0 -50z"/>
<path d="M2947 2853 c-3 -5 8 -8 23 -8 15 0 26 3 23 8 -2 4 -13 7 -23 7 -10 0
-21 -3 -23 -7z"/>
<path d="M3021 2808 c1 -29 4 -41 6 -26 3 18 12 28 26 31 l22 4 -22 2 c-33 2
-29 29 5 34 25 4 25 4 -5 6 l-33 1 1 -52z"/>
<path d="M3101 2808 c1 -29 4 -41 6 -26 3 18 12 28 26 31 l22 4 -22 2 c-33 2
-29 29 5 34 25 4 25 4 -5 6 l-33 1 1 -52z"/>
<path d="M3181 2808 c1 -29 4 -41 6 -26 3 18 12 28 26 31 l22 4 -22 2 c-33 2
-29 29 5 34 25 4 25 4 -5 6 l-33 1 1 -52z"/>
<path d="M3251 2808 c1 -29 4 -41 6 -26 3 18 12 28 26 31 l22 4 -22 2 c-33 2
-29 29 5 34 25 4 25 4 -5 6 l-33 1 1 -52z"/>
<path d="M2821 2813 c0 -19 -8 -36 -18 -42 -10 -6 -13 -11 -7 -11 20 0 36 28
31 57 -4 27 -4 27 -6 -4z"/>
<path d="M2932 2810 c0 -14 2 -19 5 -12 2 6 2 18 0 25 -3 6 -5 1 -5 -13z"/>
<path d="M2360 2816 c0 -2 7 -7 16 -10 8 -3 12 -2 9 4 -6 10 -25 14 -25 6z"/>
<path d="M2550 2813 c0 -5 11 -8 24 -8 13 0 22 3 19 8 -2 4 -13 7 -24 7 -10 0
-19 -3 -19 -7z"/>
<path d="M2787 2809 c7 -7 15 -10 18 -7 3 3 -2 9 -12 12 -14 6 -15 5 -6 -5z"/>
<path d="M2288 2803 c-16 -2 -28 -8 -28 -12 0 -4 14 -6 30 -3 17 2 30 8 30 13
0 5 -1 8 -2 8 -2 -1 -15 -4 -30 -6z"/>
<path d="M2170 2794 c0 -17 27 -37 42 -31 8 4 7 6 -4 6 -9 1 -22 9 -27 19 -6
9 -11 12 -11 6z"/>
<path d="M2750 2784 c0 -12 -6 -15 -21 -11 -16 4 -19 3 -11 -5 14 -14 42 -3
42 17 0 8 -2 15 -5 15 -3 0 -5 -7 -5 -16z"/>
<path d="M2370 2770 c-9 -6 -10 -10 -3 -10 6 0 15 5 18 10 8 12 4 12 -15 0z"/>
<path d="M2417 2768 c2 -5 10 -8 18 -8 8 0 16 3 18 8 3 4 -5 7 -18 7 -13 0
-21 -3 -18 -7z"/>
<path d="M2557 2768 c2 -5 10 -8 18 -8 8 0 16 3 18 8 3 4 -5 7 -18 7 -13 0
-21 -3 -18 -7z"/>
<path d="M2947 2768 c2 -5 13 -8 23 -8 10 0 21 3 23 8 3 4 -8 7 -23 7 -15 0
-26 -3 -23 -7z"/>
<path d="M1378 2380 c-9 -27 -12 -50 -7 -50 5 0 9 5 9 10 0 6 11 10 25 10 14
0 25 -4 25 -10 0 -5 4 -10 9 -10 5 0 2 23 -7 50 -9 28 -21 50 -27 50 -6 0 -18
-22 -27 -50z m42 -7 c0 -7 -7 -13 -15 -13 -16 0 -19 9 -9 35 5 13 8 14 15 3 5
-7 9 -19 9 -25z"/>
<path d="M2090 2405 c-7 -9 -10 -18 -6 -22 3 -3 6 -1 6 6 0 6 10 16 23 21 15
6 17 9 6 9 -9 1 -22 -6 -29 -14z"/>
<path d="M2180 2409 c0 -5 5 -7 10 -4 6 3 10 8 10 11 0 2 -4 4 -10 4 -5 0 -10
-5 -10 -11z"/>
<path d="M2210 2406 c0 -8 -8 -16 -17 -18 -15 -2 -17 -10 -12 -38 l6 -35 2 33
c1 41 21 42 21 0 0 -46 10 -29 12 21 1 30 5 40 15 37 7 -3 13 -1 13 4 0 6 -9
10 -20 10 -11 0 -20 -6 -20 -14z"/>
<path d="M2145 2370 c0 -34 1 -38 9 -21 5 13 5 29 0 42 -8 17 -9 13 -9 -21z"/>
<path d="M1473 2365 c0 -22 2 -30 4 -17 2 12 2 30 0 40 -3 9 -5 -1 -4 -23z"/>
<path d="M1517 2394 c-4 -4 -7 -18 -7 -31 0 -26 26 -41 42 -25 8 8 5 9 -11 5
-12 -3 -21 -1 -21 6 0 6 9 11 21 11 14 0 19 5 17 17 -3 19 -29 29 -41 17z m33
-14 c0 -5 -7 -10 -15 -10 -8 0 -15 5 -15 10 0 6 7 10 15 10 8 0 15 -4 15 -10z"/>
<path d="M1586 2391 c-3 -5 4 -7 16 -5 l23 5 -22 -12 c-33 -17 -31 -49 2 -47
22 2 26 7 23 33 -3 30 -30 47 -42 26z m34 -30 c0 -12 -20 -25 -27 -18 -7 7 6
27 18 27 5 0 9 -4 9 -9z"/>
<path d="M2243 2355 c0 -22 2 -30 4 -17 2 12 2 30 0 40 -3 9 -5 -1 -4 -23z"/>
<path d="M2277 2383 c-4 -3 -7 -17 -7 -30 0 -26 26 -41 42 -25 8 8 5 9 -11 5
-18 -4 -21 -1 -21 22 0 22 4 26 20 22 11 -3 18 -1 14 4 -6 11 -28 12 -37 2z"/>
<path d="M2340 2375 c-23 -28 17 -72 42 -47 8 8 5 9 -9 6 -12 -3 -24 -1 -27 5
-5 7 3 11 18 11 28 0 33 9 14 28 -16 16 -23 15 -38 -3z m35 -5 c3 -5 -3 -10
-15 -10 -12 0 -18 5 -15 10 3 6 10 10 15 10 5 0 12 -4 15 -10z"/>
<path d="M7720 2379 c0 -4 5 -11 11 -15 8 -4 8 -9 0 -17 -18 -18 -13 -22 29
-23 38 -1 40 0 25 16 -11 12 -13 20 -6 25 21 12 11 21 -24 21 -19 0 -35 -3
-35 -7z"/>
<path d="M7928 2358 c9 -9 15 -9 24 0 9 9 7 12 -12 12 -19 0 -21 -3 -12 -12z"/>
<path d="M2080 2354 c0 -17 27 -37 42 -31 8 4 7 6 -4 6 -9 1 -22 9 -27 19 -6
9 -11 12 -11 6z"/>
<path d="M1032 1983 c12 -3 18 -18 21 -51 l3 -47 2 47 c2 35 6 48 20 51 9 3
-1 5 -23 5 -22 0 -32 -2 -23 -5z"/>
<path d="M1100 1986 c0 -3 5 -15 12 -25 9 -15 8 -24 -5 -45 -10 -14 -13 -26
-8 -26 6 0 15 8 20 18 10 16 12 16 25 0 21 -28 30 -21 11 8 -15 23 -15 27 0
50 8 13 11 24 5 24 -6 0 -13 -7 -17 -15 -5 -14 -8 -14 -24 1 -11 9 -19 14 -19
10z"/>
<path d="M1232 1978 c-15 -15 -15 -61 0 -76 14 -14 44 -16 52 -4 2 4 -8 8 -22
7 -24 0 -27 4 -27 35 0 31 3 35 27 35 14 -1 24 3 22 7 -8 12 -38 10 -52 -4z"/>
<path d="M1312 1940 c0 -39 2 -47 7 -26 9 41 31 46 31 7 0 -17 5 -31 10 -31
11 0 13 30 4 54 -3 9 -14 16 -24 16 -10 0 -21 8 -23 18 -3 9 -5 -8 -5 -38z"/>
<path d="M1609 1988 c-5 -18 -6 -38 -1 -34 7 8 12 36 6 36 -2 0 -4 -1 -5 -2z"/>
<path d="M2085 1969 c-4 -6 -4 -13 -1 -16 3 -4 6 -1 6 6 0 8 6 11 16 7 8 -3
12 -2 9 4 -8 13 -22 13 -30 -1z"/>
<path d="M1393 1947 c3 -8 1 -19 -5 -25 -16 -16 0 -32 28 -30 21 2 25 7 22 33
-2 23 -9 31 -27 33 -18 3 -22 0 -18 -11z m27 -32 c0 -8 -4 -15 -10 -15 -5 0
-10 7 -10 15 0 8 5 15 10 15 6 0 10 -7 10 -15z"/>
<path d="M1463 1925 c0 -22 2 -30 4 -17 2 12 2 30 0 40 -3 9 -5 -1 -4 -23z"/>
<path d="M1490 1925 c0 -19 5 -35 10 -35 6 0 10 16 10 35 0 19 -4 35 -10 35
-5 0 -10 -16 -10 -35z"/>
<path d="M1528 1925 c2 -19 8 -35 14 -35 13 0 6 63 -8 67 -6 2 -8 -10 -6 -32z"/>
<path d="M2090 1886 c7 -7 13 -7 20 0 6 6 3 10 -10 10 -13 0 -16 -4 -10 -10z"/>
<path d="M518 1500 c-9 -27 -12 -50 -7 -50 5 0 9 5 9 10 0 6 11 10 25 10 14 0
25 -4 25 -10 0 -5 4 -10 9 -10 5 0 2 23 -7 50 -9 28 -21 50 -27 50 -6 0 -18
-22 -27 -50z m42 -7 c0 -7 -7 -13 -15 -13 -16 0 -19 9 -9 35 5 13 8 14 15 3 5
-7 9 -19 9 -25z"/>
<path d="M1062 1538 c-17 -17 -15 -63 2 -78 23 -18 61 -8 64 18 3 18 -1 22
-20 21 -18 -1 -19 -2 -5 -6 24 -6 16 -27 -10 -31 -25 -4 -38 26 -28 59 6 17
12 20 37 15 18 -3 27 -2 23 4 -9 14 -49 12 -63 -2z"/>
<path d="M1374 1538 c-10 -17 -9 -97 2 -108 5 -5 9 17 9 56 0 35 -1 64 -2 64
-1 0 -5 -5 -9 -12z"/>
<path d="M1450 1500 c0 -27 5 -50 10 -50 6 0 10 23 10 50 0 28 -4 50 -10 50
-5 0 -10 -22 -10 -50z"/>
<path d="M1490 1499 l0 -50 33 3 c29 3 32 6 32 38 1 52 -4 60 -36 60 -28 0
-29 -1 -29 -51z m50 26 c0 -8 -9 -15 -20 -15 -11 0 -20 7 -20 15 0 8 9 15 20
15 11 0 20 -7 20 -15z m5 -45 c0 -8 -10 -16 -22 -18 -18 -3 -23 2 -23 18 0 16
5 21 23 18 12 -2 22 -10 22 -18z"/>
<path d="M1615 1485 c0 -35 3 -58 7 -52 4 7 8 30 8 52 0 22 -4 45 -8 52 -4 6
-7 -17 -7 -52z"/>
<path d="M2090 1536 c0 -2 7 -7 16 -10 8 -3 12 -2 9 4 -6 10 -25 14 -25 6z"/>
<path d="M677 1524 c-9 -9 9 -68 21 -70 7 -1 8 0 2 3 -14 7 -13 50 2 55 8 3 6
6 -4 10 -9 4 -18 5 -21 2z"/>
<path d="M613 1485 c0 -22 2 -30 4 -17 2 12 2 30 0 40 -3 9 -5 -1 -4 -23z"/>
<path d="M637 1513 c6 -4 13 -22 16 -38 4 -27 5 -27 3 4 0 21 -7 36 -16 38
-10 3 -11 2 -3 -4z"/>
<path d="M727 1514 c-4 -4 -7 -18 -7 -31 0 -26 26 -41 42 -25 8 8 5 9 -11 5
-12 -3 -21 -1 -21 6 0 6 9 11 21 11 14 0 19 5 17 17 -3 19 -29 29 -41 17z m33
-14 c0 -5 -7 -10 -15 -10 -8 0 -15 5 -15 10 0 6 7 10 15 10 8 0 15 -4 15 -10z"/>
<path d="M790 1485 c0 -19 5 -35 10 -35 6 0 10 16 10 35 0 19 -4 35 -10 35 -5
0 -10 -16 -10 -35z"/>
<path d="M828 1485 c2 -19 8 -35 14 -35 13 0 6 63 -8 67 -6 2 -8 -10 -6 -32z"/>
<path d="M871 1483 c1 -36 2 -36 8 -9 9 41 31 46 31 7 0 -17 5 -31 10 -31 11
0 13 30 4 54 -3 9 -17 16 -30 16 -21 0 -24 -4 -23 -37z"/>
<path d="M953 1507 c3 -8 1 -19 -5 -25 -16 -16 0 -32 28 -30 21 2 25 7 22 33
-2 23 -9 31 -27 33 -18 3 -22 0 -18 -11z m27 -32 c0 -8 -4 -15 -10 -15 -5 0
-10 7 -10 15 0 8 5 15 10 15 6 0 10 -7 10 -15z"/>
<path d="M1156 1511 c-3 -5 4 -7 16 -5 l23 5 -22 -12 c-33 -17 -31 -49 2 -47
22 2 26 7 23 33 -3 30 -30 47 -42 26z m34 -30 c0 -12 -20 -25 -27 -18 -7 7 6
27 18 27 5 0 9 -4 9 -9z"/>
<path d="M1223 1485 c0 -22 2 -30 4 -17 2 12 2 30 0 40 -3 9 -5 -1 -4 -23z"/>
<path d="M1263 1485 c0 -22 2 -30 4 -17 2 12 2 30 0 40 -3 9 -5 -1 -4 -23z"/>
<path d="M1287 1513 c6 -4 13 -22 16 -38 4 -27 5 -27 3 4 0 21 -7 36 -16 38
-10 3 -11 2 -3 -4z"/>
<path d="M1414 1506 c-8 -22 -1 -49 14 -52 7 -1 8 0 2 3 -14 7 -13 50 3 56 9
4 9 6 -1 6 -7 1 -15 -5 -18 -13z"/>
<path d="M1583 1485 c0 -22 2 -30 4 -17 2 12 2 30 0 40 -3 9 -5 -1 -4 -23z"/>
<path d="M2106 1501 c-4 -6 -2 -11 3 -11 6 0 11 -8 12 -17 0 -10 3 -13 5 -6 8
18 -11 49 -20 34z"/>
<path d="M2098 1443 c7 -3 16 -2 19 1 4 3 -2 6 -13 5 -11 0 -14 -3 -6 -6z"/>
<path d="M960 1060 c0 -52 11 -61 54 -44 22 8 22 80 0 88 -43 17 -54 8 -54
-44z m55 0 c0 -29 -4 -36 -22 -38 -21 -3 -23 1 -23 38 0 37 2 41 23 38 18 -2
22 -9 22 -38z"/>
<path d="M1423 1089 c-12 -12 -2 -71 12 -76 9 -3 12 74 3 83 -2 2 -9 -1 -15
-7z"/>
<path d="M2300 1096 c0 -2 7 -7 16 -10 8 -3 12 -2 9 4 -6 10 -25 14 -25 6z"/>
<path d="M2365 1089 c-4 -6 -4 -13 -1 -16 3 -4 6 -1 6 6 0 8 6 11 16 7 8 -3
12 -2 9 4 -8 13 -22 13 -30 -1z"/>
<path d="M2230 1080 c-13 -8 -12 -10 3 -10 9 0 17 5 17 10 0 12 -1 12 -20 0z"/>
<path d="M2440 1080 c-13 -8 -12 -10 3 -10 9 0 17 5 17 10 0 12 -1 12 -20 0z"/>
<path d="M1057 1074 c-4 -4 -7 -18 -7 -31 0 -26 26 -41 42 -25 8 8 5 9 -11 5
-12 -3 -21 -1 -21 6 0 6 9 11 21 11 14 0 19 5 17 17 -3 19 -29 29 -41 17z m33
-14 c0 -5 -7 -10 -15 -10 -8 0 -15 5 -15 10 0 6 7 10 15 10 8 0 15 -4 15 -10z"/>
<path d="M1124 1069 c-4 -7 4 -20 17 -31 l24 -20 -24 6 c-17 3 -21 2 -13 -6
13 -13 42 -3 42 15 0 8 -10 19 -22 26 l-23 12 23 -5 c12 -2 20 0 16 5 -7 13
-31 11 -40 -2z"/>
<path d="M1194 1066 c-10 -26 1 -51 24 -54 12 -2 22 1 22 6 0 5 -8 9 -17 8
-12 -1 -18 6 -18 19 0 13 6 20 18 19 9 -1 17 2 17 7 0 15 -40 10 -46 -5z"/>
<path d="M1260 1045 c0 -19 5 -35 10 -35 6 0 10 13 10 29 0 16 6 32 13 34 6 3
2 6 -10 6 -20 1 -23 -4 -23 -34z"/>
<path d="M1313 1045 c0 -22 2 -30 4 -17 2 12 2 30 0 40 -3 9 -5 -1 -4 -23z"/>
<path d="M1353 1030 c0 -30 2 -43 4 -27 2 15 2 39 0 55 -2 15 -4 2 -4 -28z"/>
<path d="M1378 1073 c15 -6 16 -53 0 -53 -6 0 -8 -3 -4 -7 4 -5 14 1 21 11 16
21 4 57 -18 55 -9 0 -9 -2 1 -6z"/>
<path d="M1473 1045 c0 -22 2 -30 4 -17 2 12 2 30 0 40 -3 9 -5 -1 -4 -23z"/>
<path d="M1507 1073 c-11 -10 -8 -51 3 -58 20 -12 50 6 50 30 0 27 -35 46 -53
28z m38 -28 c0 -11 -8 -21 -17 -23 -14 -3 -18 3 -18 23 0 20 4 26 18 23 9 -2
17 -12 17 -23z"/>
<path d="M1583 1045 c0 -22 2 -30 4 -17 2 12 2 30 0 40 -3 9 -5 -1 -4 -23z"/>
<path d="M1607 1072 c6 -4 13 -21 16 -37 4 -27 4 -27 6 8 1 29 -3 37 -16 37
-12 0 -14 -3 -6 -8z"/>
<path d="M2110 1063 c16 -7 12 -53 -4 -53 -8 0 -17 5 -19 10 -3 6 -4 5 -3 -2
2 -7 11 -13 22 -13 14 0 19 7 19 29 0 16 -6 30 -13 32 -7 1 -8 0 -2 -3z"/>
<path d="M2155 1060 c-3 -6 1 -7 9 -4 18 7 21 14 7 14 -6 0 -13 -4 -16 -10z"/>
<path d="M2193 1030 c0 -25 2 -35 4 -22 2 12 2 32 0 45 -2 12 -4 2 -4 -23z"/>
<path d="M2316 1061 c-4 -6 -2 -11 3 -11 6 0 11 -8 12 -17 0 -10 3 -13 5 -6 8
18 -11 49 -20 34z"/>
<path d="M2157 1009 c7 -7 15 -10 18 -7 3 3 -2 9 -12 12 -14 6 -15 5 -6 -5z"/>
<path d="M2370 1006 c7 -7 13 -7 20 0 6 6 3 10 -10 10 -13 0 -16 -4 -10 -10z"/>
<path d="M2308 1003 c7 -3 16 -2 19 1 4 3 -2 6 -13 5 -11 0 -14 -3 -6 -6z"/>
<path d="M2158 973 c6 -2 18 -2 25 0 6 3 1 5 -13 5 -14 0 -19 -2 -12 -5z"/>
<path d="M1052 623 l-2 -53 33 1 c29 2 29 2 5 6 -24 4 -27 9 -31 51 l-3 47 -2
-52z"/>
<path d="M1609 668 c-5 -18 -6 -38 -1 -34 7 8 12 36 6 36 -2 0 -4 -1 -5 -2z"/>
<path d="M1337 644 c-9 -9 9 -68 21 -70 7 -1 8 0 2 3 -14 7 -13 50 2 55 8 3 6
6 -4 10 -9 4 -18 5 -21 2z"/>
<path d="M1124 626 c-11 -29 0 -51 26 -51 21 0 25 5 25 30 0 24 -5 31 -23 33
-13 2 -24 -3 -28 -12z m43 -12 c8 -21 -13 -42 -28 -27 -13 13 -5 43 11 43 6 0
13 -7 17 -16z"/>
<path d="M1207 633 c-4 -3 -7 -17 -7 -30 0 -26 26 -41 42 -25 8 8 5 9 -11 5
-18 -4 -21 -1 -21 22 0 22 4 26 20 22 11 -3 18 -1 14 4 -6 11 -28 12 -37 2z"/>
<path d="M1276 631 c-3 -5 4 -7 16 -5 l23 5 -22 -12 c-33 -17 -31 -49 2 -47
22 2 26 7 23 33 -3 30 -30 47 -42 26z m34 -30 c0 -12 -20 -25 -27 -18 -7 7 6
27 18 27 5 0 9 -4 9 -9z"/>
<path d="M1383 605 c0 -22 2 -30 4 -17 2 12 2 30 0 40 -3 9 -5 -1 -4 -23z"/>
<path d="M1420 625 c-15 -18 -7 -43 16 -52 24 -9 46 24 33 48 -12 23 -32 24
-49 4z m40 -20 c0 -25 -23 -35 -35 -15 -10 16 2 40 20 40 9 0 15 -9 15 -25z"/>
<path d="M1490 605 c0 -19 5 -35 10 -35 6 0 10 16 10 35 0 19 -4 35 -10 35 -5
0 -10 -16 -10 -35z"/>
<path d="M1528 605 c2 -19 8 -35 14 -35 13 0 6 63 -8 67 -6 2 -8 -10 -6 -32z"/>
</g>
</svg>
