<?xml version="1.0" standalone="no"?>
<!DOCTYPE svg PUBLIC "-//W3C//DTD SVG 20010904//EN"
 "http://www.w3.org/TR/2001/REC-SVG-20010904/DTD/svg10.dtd">
<svg version="1.0" xmlns="http://www.w3.org/2000/svg"
 width="854.000000pt" height="330.000000pt" viewBox="0 0 854.000000 330.000000"
 preserveAspectRatio="xMidYMid meet">

<g transform="translate(0.000000,330.000000) scale(0.100000,-0.100000)"
fill="#000000" stroke="none">
<path d="M60 3085 l0 -115 80 0 c97 0 107 18 13 22 l-68 3 0 40 0 40 63 3 c83
4 80 22 -4 22 l-65 0 3 38 3 37 68 3 c94 4 84 22 -13 22 l-80 0 0 -115z"/>
<path d="M370 3158 c0 -33 -3 -39 -12 -30 -19 19 -47 14 -73 -13 -34 -33 -34
-87 0 -120 26 -27 46 -31 76 -15 13 7 19 7 19 0 0 -5 5 -10 10 -10 6 0 10 45
10 115 0 96 -3 115 -15 115 -11 0 -15 -11 -15 -42z m-10 -58 c24 -24 26 -57 4
-88 -19 -27 -38 -28 -64 -2 -24 24 -26 57 -4 88 19 27 38 28 64 2z"/>
<path d="M450 3185 c0 -8 5 -15 10 -15 6 0 10 7 10 15 0 8 -4 15 -10 15 -5 0
-10 -7 -10 -15z"/>
<path d="M1480 3181 c0 -35 -12 -51 -36 -51 -13 0 -24 -4 -24 -10 0 -5 9 -10
20 -10 15 0 20 -7 20 -25 0 -18 -5 -25 -20 -25 -11 0 -20 -4 -20 -10 0 -5 7
-10 15 -10 13 0 15 -7 9 -35 -4 -21 -2 -35 4 -35 5 0 13 16 16 35 6 29 11 35
33 35 24 0 25 -3 20 -35 -3 -19 -2 -35 3 -35 5 0 12 16 16 35 5 28 11 35 30
35 13 0 24 5 24 10 0 6 -9 10 -20 10 -11 0 -20 4 -20 9 0 21 13 41 26 41 8 0
14 5 14 10 0 6 -6 10 -14 10 -11 0 -12 8 -6 35 4 19 4 35 0 35 -10 0 -20 -26
-20 -51 0 -14 -7 -19 -29 -19 -28 0 -29 2 -24 35 4 23 2 35 -6 35 -6 0 -11 -9
-11 -19z m56 -87 c-3 -9 -6 -20 -6 -25 0 -5 -11 -9 -25 -9 -18 0 -25 5 -25 18
0 25 9 32 38 32 18 0 23 -4 18 -16z"/>
<path d="M1675 3187 c-79 -36 -72 -180 10 -207 77 -25 145 24 145 106 0 82
-80 134 -155 101z m108 -38 c27 -33 23 -104 -8 -134 -31 -32 -66 -32 -102 -1
-23 20 -28 32 -28 71 0 39 5 51 29 72 35 29 80 26 109 -8z"/>
<path d="M1892 3188 c-7 -7 -12 -20 -12 -30 0 -10 -7 -18 -15 -18 -8 0 -15 -4
-15 -10 0 -5 7 -10 15 -10 12 0 15 -15 15 -75 0 -43 4 -75 10 -75 6 0 10 32
10 75 l0 75 30 0 30 0 0 -75 c0 -60 3 -75 15 -75 12 0 15 15 15 75 0 60 3 75
15 75 8 0 15 5 15 10 0 6 -7 10 -15 10 -22 0 -18 31 5 37 26 7 26 23 1 23 -23
0 -51 -25 -51 -46 0 -9 -11 -14 -30 -14 -35 0 -43 29 -10 37 11 3 20 9 20 14
0 13 -34 11 -48 -3z"/>
<path d="M2050 3185 c0 -8 5 -15 10 -15 6 0 10 7 10 15 0 8 -4 15 -10 15 -5 0
-10 -7 -10 -15z"/>
<path d="M530 3166 c0 -13 -6 -27 -12 -29 -10 -4 -10 -7 -1 -14 7 -5 13 -39
15 -78 3 -64 5 -70 26 -73 25 -4 30 13 7 22 -11 4 -15 21 -15 66 0 47 3 60 15
60 8 0 15 5 15 10 0 6 -7 10 -15 10 -9 0 -15 9 -15 25 0 14 -4 25 -10 25 -5 0
-10 -11 -10 -24z"/>
<path d="M450 3055 c0 -50 4 -85 10 -85 6 0 10 35 10 85 0 50 -4 85 -10 85 -6
0 -10 -35 -10 -85z"/>
<path d="M722 3124 c-12 -8 -22 -22 -22 -30 0 -20 13 -18 33 6 20 24 50 26 67
5 16 -19 4 -35 -25 -35 -65 0 -103 -44 -69 -81 19 -22 45 -24 77 -8 16 9 22 9
25 0 2 -6 9 -11 15 -11 19 0 10 142 -11 158 -22 17 -63 15 -90 -4z m88 -89 c0
-21 -45 -48 -70 -40 -22 7 -27 40 -7 48 28 12 77 7 77 -8z"/>
<path d="M880 3055 c0 -98 15 -114 23 -25 5 64 21 94 44 86 7 -3 13 1 13 9 0
18 -14 19 -41 5 -13 -7 -19 -7 -19 0 0 5 -4 10 -10 10 -6 0 -10 -35 -10 -85z"/>
<path d="M1005 3115 c-71 -70 19 -188 96 -126 31 25 18 38 -16 15 -31 -20 -69
-8 -78 25 -5 20 -1 21 60 21 l65 0 -6 28 c-15 60 -79 80 -121 37z m76 -5 c36
-20 23 -40 -26 -40 -48 0 -62 19 -27 39 22 13 29 13 53 1z"/>
<path d="M1192 3124 c-12 -8 -22 -22 -22 -30 0 -20 13 -18 33 6 20 24 50 26
67 5 16 -19 4 -35 -25 -35 -65 0 -103 -44 -69 -81 19 -22 45 -24 77 -8 16 9
22 9 25 0 2 -6 9 -11 15 -11 19 0 10 142 -11 158 -22 17 -63 15 -90 -4z m88
-89 c0 -21 -45 -48 -70 -40 -22 7 -27 40 -7 48 28 12 77 7 77 -8z"/>
<path d="M2050 3055 c0 -50 4 -85 10 -85 6 0 10 35 10 85 0 50 -4 85 -10 85
-6 0 -10 -35 -10 -85z"/>
<path d="M2135 3115 c-50 -49 -17 -145 50 -145 25 0 65 31 65 50 0 15 -20 12
-26 -5 -15 -38 -77 -24 -88 19 -15 60 41 109 75 67 9 -11 20 -21 23 -21 12 0
6 29 -10 44 -23 23 -61 19 -89 -9z"/>
<path d="M2312 3133 c-39 -15 -52 -114 -18 -142 25 -21 74 -24 101 -7 28 18
33 36 10 36 -8 0 -15 -4 -15 -10 0 -20 -50 -23 -70 -5 -36 33 -25 45 40 45 54
0 60 2 60 20 0 45 -63 81 -108 63z m66 -25 c25 -25 13 -38 -33 -38 -48 0 -55
9 -29 34 18 19 45 21 62 4z"/>
<path d="M1171 2438 c1 -48 2 -49 8 -18 l7 35 17 -32 c10 -18 20 -33 22 -33 3
0 4 24 4 53 -1 47 -2 48 -8 17 l-7 -35 -17 33 c-10 17 -20 32 -22 32 -3 0 -4
-24 -4 -52z"/>
<path d="M1549 2489 c0 -2 -2 -11 -4 -20 -1 -9 3 -16 10 -16 7 0 12 6 11 13
-2 13 -15 31 -17 23z"/>
<path d="M2029 2463 c-12 -16 -12 -17 1 -7 8 6 22 14 30 17 13 5 12 6 -1 6 -9
1 -23 -7 -30 -16z"/>
<path d="M2150 2469 c0 -5 5 -7 10 -4 6 3 10 8 10 11 0 2 -4 4 -10 4 -5 0 -10
-5 -10 -11z"/>
<path d="M1254 2449 c-4 -8 1 -9 17 -5 l24 6 -23 -12 c-29 -15 -24 -42 9 -46
23 -3 25 0 21 33 -3 26 -9 35 -23 35 -10 0 -21 -5 -25 -11z m36 -34 c0 -8 -4
-15 -9 -15 -13 0 -22 16 -14 24 11 11 23 6 23 -9z"/>
<path d="M1320 2425 c0 -19 5 -35 10 -35 6 0 10 16 10 35 0 19 -4 35 -10 35
-5 0 -10 -16 -10 -35z"/>
<path d="M1358 2424 c5 -42 22 -45 22 -4 0 17 5 30 10 30 6 0 10 -13 10 -30 0
-16 5 -30 11 -30 6 0 9 14 7 33 -3 28 -7 32 -33 34 -29 1 -31 -1 -27 -33z"/>
<path d="M1440 2445 c-24 -29 18 -72 43 -45 9 10 7 11 -10 5 -14 -4 -23 -2
-23 4 0 6 9 11 21 11 15 0 19 4 15 16 -3 9 -6 18 -6 20 0 10 -29 3 -40 -11z
m35 -5 c3 -5 -1 -10 -9 -10 -9 0 -16 5 -16 10 0 6 4 10 9 10 6 0 13 -4 16 -10z"/>
<path d="M2127 2443 c16 -3 23 -13 25 -36 l3 -32 6 38 c5 36 4 37 -26 36 -22
-1 -24 -3 -8 -6z"/>
<path d="M2183 2415 c0 -22 2 -30 4 -17 2 12 2 30 0 40 -3 9 -5 -1 -4 -23z"/>
<path d="M2217 2443 c-4 -3 -7 -17 -7 -30 0 -26 26 -41 42 -25 8 8 5 9 -11 5
-18 -4 -21 -1 -21 22 0 22 4 26 20 22 11 -3 18 -1 14 4 -6 11 -28 12 -37 2z"/>
<path d="M2280 2446 c0 -2 9 -6 20 -9 11 -3 18 -1 14 4 -5 9 -34 13 -34 5z"/>
<path d="M2270 2415 c0 -8 9 -10 25 -7 14 2 25 6 25 7 0 1 -11 5 -25 7 -16 3
-25 1 -25 -7z"/>
<path d="M2032 2394 c9 -9 21 -15 27 -13 6 2 -2 10 -17 17 -25 11 -25 11 -10
-4z"/>
<path d="M2295 2390 c-16 -7 -17 -9 -3 -9 9 -1 20 4 23 9 7 11 7 11 -20 0z"/>
<path d="M710 2025 c-5 -14 -13 -38 -16 -53 -5 -22 -4 -25 7 -14 7 6 21 12 30
12 10 0 19 -6 22 -12 2 -7 7 -10 11 -7 8 8 -24 99 -35 99 -5 0 -14 -11 -19
-25z m30 -25 c0 -11 -7 -20 -15 -20 -17 0 -18 2 -9 24 9 23 24 20 24 -4z"/>
<path d="M830 2031 c0 -14 -5 -18 -19 -14 -13 3 -21 -2 -26 -17 -8 -26 9 -49
36 -47 16 1 19 9 19 49 0 26 -2 48 -5 48 -3 0 -5 -9 -5 -19z m-5 -46 c0 -10
-6 -20 -12 -22 -8 -3 -13 5 -13 22 0 17 5 25 13 23 6 -3 12 -13 12 -23z"/>
<path d="M1193 2029 c-12 -12 -2 -71 12 -76 9 -3 12 74 3 83 -2 2 -9 -1 -15
-7z"/>
<path d="M2080 2030 c0 -5 -6 -10 -14 -10 -8 0 -16 -7 -20 -15 -8 -23 4 -45
25 -45 15 0 19 7 19 40 0 22 -2 40 -5 40 -3 0 -5 -4 -5 -10z m0 -40 c0 -21
-15 -27 -25 -10 -7 12 2 30 16 30 5 0 9 -9 9 -20z"/>
<path d="M1359 2025 c-7 -6 2 -75 10 -75 3 0 6 16 5 35 -1 35 -6 49 -15 40z"/>
<path d="M860 1985 c0 -19 5 -35 10 -35 6 0 10 16 10 35 0 19 -4 35 -10 35 -5
0 -10 -16 -10 -35z"/>
<path d="M898 1984 c5 -42 22 -45 22 -4 0 17 5 30 10 30 6 0 10 -13 10 -30 0
-16 5 -30 11 -30 6 0 9 14 7 33 -3 28 -7 32 -33 34 -29 1 -31 -1 -27 -33z"/>
<path d="M983 1985 c0 -22 2 -30 4 -17 2 12 2 30 0 40 -3 9 -5 -1 -4 -23z"/>
<path d="M1011 1983 c1 -36 2 -36 8 -9 9 41 31 46 31 7 0 -17 5 -31 10 -31 11
0 13 30 4 54 -3 9 -17 16 -30 16 -21 0 -24 -4 -23 -37z"/>
<path d="M1093 1985 c0 -22 2 -30 4 -17 2 12 2 30 0 40 -3 9 -5 -1 -4 -23z"/>
<path d="M1124 2009 c-4 -7 4 -20 17 -31 l24 -20 -24 6 c-17 3 -21 2 -13 -6
13 -13 42 -3 42 15 0 8 -10 19 -22 26 l-23 12 23 -5 c12 -2 20 0 16 5 -7 13
-31 11 -40 -2z"/>
<path d="M1243 1985 c0 -22 2 -30 4 -17 2 12 2 30 0 40 -3 9 -5 -1 -4 -23z"/>
<path d="M1284 2009 c-4 -8 1 -9 17 -5 l24 6 -23 -12 c-29 -15 -24 -42 9 -46
23 -3 25 0 21 33 -3 26 -9 35 -23 35 -10 0 -21 -5 -25 -11z m36 -34 c0 -8 -4
-15 -9 -15 -13 0 -22 16 -14 24 11 11 23 6 23 -9z"/>
<path d="M1400 2005 c-15 -18 -7 -43 16 -52 24 -9 46 24 33 48 -12 23 -32 24
-49 4z m40 -20 c0 -25 -23 -35 -35 -15 -10 16 2 40 20 40 9 0 15 -9 15 -25z"/>
<path d="M1470 1985 c0 -19 5 -35 10 -35 6 0 10 13 10 29 0 16 6 32 13 34 6 3
2 6 -10 6 -20 1 -23 -4 -23 -34z"/>
<path d="M1524 2009 c-4 -7 4 -20 17 -31 l24 -20 -24 6 c-17 3 -21 2 -13 -6
13 -13 42 -3 42 15 0 8 -10 19 -22 26 l-23 12 23 -5 c12 -2 20 0 16 5 -7 13
-31 11 -40 -2z"/>
<path d="M2004 2011 c18 -7 18 -8 3 -14 -24 -9 -21 -37 3 -37 16 0 20 7 20 30
0 25 -4 30 -22 29 -21 0 -21 -1 -4 -8z m16 -31 c0 -5 -4 -10 -10 -10 -5 0 -10
5 -10 10 0 6 5 10 10 10 6 0 10 -4 10 -10z"/>
<path d="M2111 1988 c2 -30 2 -31 6 -5 5 34 20 35 26 2 4 -23 4 -23 3 2 -1 18
-7 29 -18 31 -15 3 -18 -3 -17 -30z"/>
<path d="M2168 1990 c2 -16 6 -30 8 -30 2 0 4 14 4 30 0 17 -4 30 -8 30 -5 0
-7 -13 -4 -30z"/>
<path d="M2221 1988 c2 -31 2 -31 6 -5 2 15 8 27 13 27 5 0 11 -12 13 -27 4
-26 4 -26 6 5 1 26 -3 32 -19 32 -16 0 -20 -6 -19 -32z"/>
<path d="M747 1383 c-13 -13 -7 -38 13 -51 26 -16 26 -36 0 -29 -11 3 -18 1
-14 -4 8 -14 30 -11 45 7 12 14 10 19 -14 38 -32 26 -35 40 -7 33 11 -3 18 -1
14 4 -6 11 -28 12 -37 2z"/>
<path d="M823 1340 c0 -30 2 -43 4 -27 2 15 2 39 0 55 -2 15 -4 2 -4 -28z"/>
<path d="M991 1341 c-1 -49 1 -53 13 -36 13 18 13 18 24 -1 6 -10 11 -14 12
-9 0 6 -4 17 -10 25 -6 9 -5 20 3 30 9 12 9 13 -3 3 -21 -19 -28 -16 -33 15
-2 15 -5 3 -6 -27z"/>
<path d="M1098 1365 c-22 -49 20 -93 62 -65 11 8 8 9 -12 4 -34 -8 -55 24 -38
57 9 16 18 19 38 15 20 -5 23 -4 12 4 -26 17 -50 11 -62 -15z"/>
<path d="M1193 1340 c0 -31 2 -41 4 -22 3 18 10 32 18 32 8 0 15 -14 18 -32
l4 -33 1 33 c2 26 -3 35 -17 39 -11 3 -22 12 -24 22 -3 9 -4 -9 -4 -39z"/>
<path d="M1563 1340 c0 -30 2 -43 4 -27 2 15 2 39 0 55 -2 15 -4 2 -4 -28z"/>
<path d="M2043 1325 c0 -27 2 -38 4 -22 2 15 2 37 0 50 -2 12 -4 0 -4 -28z"/>
<path d="M856 1351 c-3 -5 4 -7 16 -5 l23 5 -22 -12 c-33 -17 -31 -49 2 -47
22 2 26 7 23 33 -3 30 -30 47 -42 26z m34 -30 c0 -12 -20 -25 -27 -18 -7 7 6
27 18 27 5 0 9 -4 9 -9z"/>
<path d="M927 1353 c-4 -3 -7 -17 -7 -30 0 -26 26 -41 42 -25 8 8 5 9 -11 5
-18 -4 -21 -1 -21 22 0 22 4 26 20 22 11 -3 18 -1 14 4 -6 11 -28 12 -37 2z"/>
<path d="M1266 1351 c-3 -5 4 -7 16 -5 l23 5 -22 -12 c-33 -17 -31 -49 2 -47
22 2 26 7 23 33 -3 30 -30 47 -42 26z m34 -30 c0 -12 -20 -25 -27 -18 -7 7 6
27 18 27 5 0 9 -4 9 -9z"/>
<path d="M1330 1325 c0 -19 5 -35 10 -35 6 0 10 16 10 35 0 19 -4 35 -10 35
-5 0 -10 -16 -10 -35z"/>
<path d="M1368 1325 c2 -19 8 -35 14 -35 13 0 6 63 -8 67 -6 2 -8 -10 -6 -32z"/>
<path d="M1411 1323 c1 -36 2 -36 8 -9 9 41 31 46 31 7 0 -17 5 -31 10 -31 11
0 13 30 4 54 -3 9 -17 16 -30 16 -21 0 -24 -4 -23 -37z"/>
<path d="M1490 1345 c-24 -29 18 -72 43 -45 9 10 7 11 -10 5 -14 -4 -23 -2
-23 4 0 6 9 11 21 11 15 0 19 4 15 16 -3 9 -6 18 -6 20 0 10 -29 3 -40 -11z
m35 -5 c3 -5 -1 -10 -9 -10 -9 0 -16 5 -16 10 0 6 4 10 9 10 6 0 13 -4 16 -10z"/>
<path d="M792 903 l-2 -53 33 1 c29 2 29 2 5 6 -24 4 -27 9 -31 51 l-3 47 -2
-52z"/>
<path d="M1053 900 c0 -30 2 -43 4 -27 2 15 2 39 0 55 -2 15 -4 2 -4 -28z"/>
<path d="M1480 931 c0 -14 -5 -18 -19 -14 -13 3 -21 -2 -26 -17 -8 -26 9 -49
36 -47 16 1 19 9 19 49 0 26 -2 48 -5 48 -3 0 -5 -9 -5 -19z m-5 -46 c0 -10
-6 -20 -12 -22 -8 -3 -13 5 -13 22 0 17 5 25 13 23 6 -3 12 -13 12 -23z"/>
<path d="M1515 940 c-4 -7 2 -9 19 -4 20 5 26 2 26 -9 0 -9 -4 -19 -10 -22 -5
-3 -10 -11 -10 -16 0 -6 7 -3 16 5 8 9 14 24 12 34 -4 19 -43 29 -53 12z"/>
<path d="M2020 939 c0 -5 5 -7 10 -4 6 3 10 8 10 11 0 2 -4 4 -10 4 -5 0 -10
-5 -10 -11z"/>
<path d="M2123 900 c0 -30 2 -43 4 -27 2 15 2 39 0 55 -2 15 -4 2 -4 -28z"/>
<path d="M870 905 c-15 -18 -7 -43 16 -52 24 -9 46 24 33 48 -12 23 -32 24
-49 4z m40 -20 c0 -25 -23 -35 -35 -15 -10 16 2 40 20 40 9 0 15 -9 15 -25z"/>
<path d="M947 913 c-15 -15 -7 -55 13 -60 11 -3 20 -10 20 -15 0 -5 -10 -6
-21 -3 -15 5 -19 4 -15 -4 11 -16 43 -13 50 5 3 9 6 31 6 50 0 29 -3 34 -23
34 -13 0 -27 -3 -30 -7z m33 -28 c0 -26 -14 -33 -25 -15 -9 14 1 40 15 40 5 0
10 -11 10 -25z"/>
<path d="M1085 901 c-9 -28 5 -53 26 -48 13 3 19 0 19 -10 0 -10 -6 -14 -20
-10 -11 3 -20 1 -20 -5 0 -5 10 -8 23 -6 19 3 22 10 25 48 3 42 1 46 -22 48
-16 1 -27 -4 -31 -17z m40 -16 c0 -10 -6 -20 -12 -22 -8 -3 -13 5 -13 22 0 17
5 25 13 23 6 -3 12 -13 12 -23z"/>
<path d="M1173 885 c0 -22 2 -30 4 -17 2 12 2 30 0 40 -3 9 -5 -1 -4 -23z"/>
<path d="M1197 913 c6 -4 13 -22 16 -38 4 -27 5 -27 3 4 0 21 -7 36 -16 38
-10 3 -11 2 -3 -4z"/>
<path d="M1244 906 c-11 -29 0 -51 26 -51 21 0 25 5 25 30 0 24 -5 31 -23 33
-13 2 -24 -3 -28 -12z m43 -12 c8 -21 -13 -42 -28 -27 -13 13 -5 43 11 43 6 0
13 -7 17 -16z"/>
<path d="M1321 883 c1 -27 3 -31 6 -13 2 14 12 31 21 38 14 11 13 12 -6 12
-19 0 -22 -5 -21 -37z"/>
<path d="M1370 905 c-24 -29 18 -72 43 -45 9 10 7 11 -10 5 -14 -4 -23 -2 -23
4 0 6 9 11 21 11 15 0 19 4 15 16 -3 9 -6 18 -6 20 0 10 -29 3 -40 -11z m35
-5 c3 -5 -1 -10 -9 -10 -9 0 -16 5 -16 10 0 6 4 10 9 10 6 0 13 -4 16 -10z"/>
<path d="M2018 885 c2 -19 5 -35 7 -35 2 0 5 16 7 35 2 21 0 35 -7 35 -7 0 -9
-14 -7 -35z"/>
<path d="M2056 911 c-3 -5 3 -7 14 -4 11 3 20 0 20 -6 0 -6 -9 -11 -20 -11
-13 0 -20 -7 -20 -20 0 -15 6 -19 25 -18 22 2 26 7 23 33 -3 30 -30 47 -42 26z
m29 -41 c-3 -5 -10 -10 -16 -10 -5 0 -9 5 -9 10 0 6 7 10 16 10 8 0 12 -4 9
-10z"/>
<path d="M2145 910 c-8 -14 3 -30 21 -30 8 0 14 -5 14 -11 0 -7 -9 -9 -21 -6
-16 4 -19 3 -11 -5 6 -6 18 -8 26 -5 20 8 21 37 2 37 -8 0 -18 5 -22 12 -5 8
0 9 14 6 12 -4 20 -2 16 3 -7 12 -31 11 -39 -1z"/>
<path d="M2217 913 c-4 -3 -7 -17 -7 -30 0 -26 26 -41 42 -25 8 8 5 9 -11 5
-11 -3 -21 -1 -21 5 0 6 10 13 23 15 l22 4 -22 2 c-13 0 -23 6 -23 12 0 6 9 9
20 6 11 -3 18 -1 14 4 -6 11 -28 12 -37 2z"/>
<path d="M2890 899 c0 -4 5 -11 11 -14 7 -5 5 -13 -6 -25 -15 -16 -13 -17 25
-16 42 1 47 5 29 23 -8 8 -8 13 0 17 21 13 11 22 -24 22 -19 0 -35 -3 -35 -7z"/>
<path d="M3098 888 c9 -9 15 -9 24 0 9 9 7 12 -12 12 -19 0 -21 -3 -12 -12z"/>
<path d="M1902 588 c-8 -8 -12 -53 -12 -138 0 -85 4 -130 12 -138 17 -17 1149
-17 1166 0 17 17 17 259 0 276 -17 17 -1149 17 -1166 0z m243 -77 c3 -5 -16
-30 -42 -54 l-47 -45 -27 22 c-19 15 -24 24 -16 34 5 7 17 10 27 7 10 -3 26 5
40 20 24 25 54 33 65 16z m100 -2 c10 -16 -4 -24 -17 -11 -16 16 -28 15 -28
-2 0 -8 11 -17 25 -20 14 -4 25 -10 25 -15 0 -5 9 -7 20 -4 11 3 20 9 20 14 0
5 -7 6 -15 3 -8 -4 -15 -1 -15 5 0 17 79 10 90 -8 8 -14 9 -14 10 2 0 9 7 17
15 17 13 0 13 -4 2 -32 -16 -40 -31 -45 -45 -16 -11 23 -11 23 -11 1 -1 -20
-6 -21 -71 -21 -38 0 -73 4 -76 10 -10 16 4 22 20 9 15 -13 36 -7 36 9 0 4
-13 13 -30 19 -28 9 -38 29 -23 44 10 11 61 8 68 -4z m335 -3 c0 -7 9 -16 20
-19 11 -3 20 -12 20 -20 0 -10 7 -13 20 -10 11 3 20 9 20 14 0 5 -7 6 -15 3
-8 -4 -15 -1 -15 4 0 14 111 14 127 0 9 -7 13 -7 13 1 0 6 14 11 30 11 17 0
30 -5 30 -11 0 -8 4 -8 13 -2 17 14 117 15 117 1 0 -5 -7 -8 -15 -4 -8 3 -15
2 -15 -3 0 -5 9 -11 21 -14 12 -3 19 -12 17 -19 -6 -17 -115 -21 -125 -5 -4 7
-9 2 -13 -13 -4 -18 -14 -26 -33 -28 -16 -2 -27 2 -27 8 0 7 7 10 15 7 8 -4
17 -2 20 3 4 6 -3 10 -14 10 -12 0 -21 6 -22 13 0 10 -2 10 -6 0 -8 -22 -23
-14 -23 11 0 14 -4 28 -10 31 -6 4 -10 -7 -10 -25 l0 -31 -60 2 c-55 2 -60 4
-60 25 0 13 -4 26 -10 29 -6 4 -10 -7 -10 -24 0 -29 -2 -31 -39 -31 -27 0 -41
5 -45 16 -11 28 3 54 30 54 15 0 24 6 24 15 0 8 7 15 15 15 8 0 15 -6 15 -14z
m-132 -28 c19 -19 14 -28 -14 -28 -14 0 -23 -4 -20 -9 3 -5 16 -7 29 -4 17 4
19 3 11 -6 -17 -18 -58 -9 -62 12 -8 42 27 64 56 35z"/>
<path d="M2520 455 c0 -18 4 -23 15 -19 8 4 15 12 15 19 0 7 -7 15 -15 19 -11
4 -15 -1 -15 -19z"/>
<path d="M2790 455 c0 -15 4 -24 10 -20 6 3 10 12 10 20 0 8 -4 17 -10 20 -6
4 -10 -5 -10 -20z"/>
<path d="M2860 470 c0 -5 5 -10 11 -10 5 0 7 5 4 10 -3 6 -8 10 -11 10 -2 0
-4 -4 -4 -10z"/>
<path d="M2883 452 c-38 -6 -26 -18 17 -17 22 0 40 3 40 6 0 9 -31 15 -57 11z"/>
<path d="M2415 470 c-3 -5 -1 -10 4 -10 6 0 11 5 11 10 0 6 -2 10 -4 10 -3 0
-8 -4 -11 -10z"/>
</g>
</svg>
